# Blender v2.82 (sub 7) OBJ File: 'Mirror.blend'
# www.blender.org
mtllib Mirror.mtl
o Cube.565_Cube.003
v -0.137656 0.118270 2.133608
v 0.810930 9.228165 2.133608
v -0.137656 0.118270 -1.768854
v 0.810930 9.228165 -1.768854
v 0.113726 0.092094 2.133608
v 1.062312 9.201989 2.133608
v 0.113726 0.092094 -1.768854
v 1.062312 9.201989 -1.768854
v 0.126943 0.219033 -1.633148
v -0.124438 0.245209 -1.633148
v 0.126943 0.219033 1.997902
v -0.124438 0.245209 1.997901
v 1.049094 9.075050 -1.633148
v 0.797712 9.101226 -1.633148
v 0.146712 0.408887 1.997902
v 1.049094 9.075050 1.997902
v 0.797712 9.101226 1.997901
v 0.777943 8.911371 1.997902
vt 0.375000 0.000000
vt 0.625000 0.000000
vt 0.616306 0.008694
vt 0.378484 0.008694
vt 0.378484 0.241306
vt 0.375000 0.250000
vt 0.625000 0.250000
vt 0.625000 0.500000
vt 0.375000 0.500000
vt 0.621516 0.508694
vt 0.378484 0.508694
vt 0.378484 0.741306
vt 0.383694 0.741306
vt 0.375000 0.750000
vt 0.625000 0.750000
vt 0.625000 1.000000
vt 0.375000 1.000000
vt 0.125000 0.500000
vt 0.125000 0.750000
vt 0.875000 0.500000
vt 0.875000 0.750000
vt 0.375000 0.308863
vt 0.375000 0.441133
vt 0.625000 0.441133
vt 0.625000 0.308863
vt 0.621516 0.741306
vt 0.621516 0.241306
vt 0.621516 0.008694
vt 0.183863 0.750000
vt 0.316133 0.750000
vt 0.316133 0.500000
vt 0.183863 0.500000
vt 0.683867 0.750000
vt 0.816137 0.750000
vt 0.816137 0.500000
vt 0.683867 0.500000
vt 0.375000 0.808867
vt 0.375000 0.941137
vt 0.619641 0.941137
vt 0.625000 0.941137
vt 0.625000 0.808867
vt 0.380359 0.808867
vn -0.9946 0.1036 -0.0000
vn 0.0000 0.0000 -1.0000
vn 0.9946 -0.1036 0.0000
vn 0.0000 0.0000 1.0000
vn -0.1036 -0.9946 0.0000
vn 0.1036 0.9946 0.0000
usemtl Material.005
s off
f 1/1/1 2/2/1 18/3/1 12/4/1 10/5/1 3/6/1
f 3/6/2 4/7/2 8/8/2 7/9/2
f 7/9/3 8/8/3 13/10/3 9/11/3 11/12/3 15/13/3 5/14/3
f 5/14/4 6/15/4 2/16/4 1/17/4
f 3/18/5 7/9/5 5/14/5 1/19/5
f 8/8/6 4/20/6 2/21/6 6/15/6
f 10/22/4 9/23/4 13/24/4 14/25/4
f 5/14/3 15/13/3 16/26/3 13/10/3 8/8/3 6/15/3
f 3/6/1 10/5/1 14/27/1 17/28/1 18/3/1 2/2/1 4/7/1
f 12/29/6 11/30/6 9/31/6 10/32/6
f 16/33/5 17/34/5 14/35/5 13/36/5
f 11/37/2 12/38/2 18/39/2 17/40/2 16/41/2 15/42/2
o Cube.566_Cube.002
v -0.108938 0.243542 1.997902
v 0.813212 9.099558 1.997902
v -0.108938 0.243542 -1.633148
v 0.813212 9.099558 -1.633148
v 0.120645 0.219636 1.997902
v 1.042795 9.075653 1.997902
v 0.120645 0.219636 -1.633148
v 1.042795 9.075653 -1.633148
v -0.108938 0.243542 -1.569187
v 0.813212 9.099558 -1.569187
v 0.120645 0.219636 -1.569187
v 1.042795 9.075653 -1.569187
v -0.108938 0.243542 1.940181
v 1.042795 9.075653 1.940181
v 0.813212 9.099558 1.940181
v 0.120645 0.219636 1.940181
v 0.807582 9.045492 1.997902
v 0.807582 9.045492 -1.633148
v 1.037165 9.021585 -1.633148
v 1.037165 9.021585 1.997902
v 1.037165 9.021585 -1.569187
v 0.807582 9.045492 -1.569187
v 0.807582 9.045492 1.940181
v 1.037165 9.021585 1.940181
v -0.103658 0.294249 -1.633148
v 0.125925 0.270343 -1.633148
v 0.125925 0.270343 1.997902
v 0.125925 0.270343 -1.569187
v -0.103658 0.294249 -1.569187
v -0.103658 0.294249 1.940181
v 0.125925 0.270343 1.940181
v -0.103658 0.294249 1.997902
v 0.813212 9.099558 1.802559
v 0.120645 0.219636 1.802559
v -0.108938 0.243542 1.802559
v 1.042795 9.075653 1.802559
v 1.037165 9.021585 1.802559
v 0.807582 9.045492 1.802559
v -0.103658 0.294249 1.802559
v 0.125925 0.270343 1.802559
v 0.813212 9.099558 -1.431564
v 0.120645 0.219636 -1.431564
v 0.807582 9.045492 -1.431564
v -0.103658 0.294249 -1.431564
v -0.108938 0.243542 -1.431564
v 1.042795 9.075653 -1.431564
v 1.037165 9.021585 -1.431564
v 0.125925 0.270343 -1.431564
v 0.793940 8.914479 1.997902
v 0.793940 8.914479 -1.633148
v 1.023523 8.890574 -1.633148
v 1.023523 8.890574 1.997902
v 1.023523 8.890574 -1.569187
v 0.793940 8.914479 -1.569187
v 0.793940 8.914479 1.940181
v 1.023523 8.890574 1.940181
v 0.793940 8.914479 1.802559
v 1.023523 8.890574 1.802559
v 1.023523 8.890574 -1.431564
v 0.793940 8.914479 -1.431564
v -0.087366 0.450709 -1.633148
v 0.142216 0.426804 -1.633148
v 0.142216 0.426804 1.997902
v 0.142216 0.426804 -1.569187
v -0.087366 0.450709 -1.569187
v -0.087366 0.450709 1.940181
v 0.142216 0.426804 1.940181
v -0.087366 0.450709 1.802559
v 0.142216 0.426804 1.802559
v 0.142216 0.426804 -1.431564
v -0.087366 0.450709 -1.431564
v -0.087366 0.450709 1.997902
vt 0.623474 0.245596
vt 0.625000 0.245596
vt 0.625000 0.250000
vt 0.623474 0.250000
vt 0.625000 0.500000
vt 0.623474 0.500000
vt 0.623474 0.750000
vt 0.625000 0.750000
vt 0.625000 1.000000
vt 0.623474 1.000000
vt 0.125000 0.746026
vt 0.375000 0.746026
vt 0.375000 0.750000
vt 0.125000 0.750000
vt 0.125000 0.500000
vt 0.375000 0.500000
vt 0.375000 0.504404
vt 0.125000 0.504404
vt 0.623474 0.236121
vt 0.625000 0.236121
vt 0.623474 0.000000
vt 0.625000 0.000000
vt 0.625000 0.003974
vt 0.623474 0.003974
vt 0.125000 0.736551
vt 0.375000 0.736550
vt 0.619775 0.000000
vt 0.619775 0.003974
vt 0.619775 0.750000
vt 0.619775 1.000000
vt 0.619775 0.250000
vt 0.619775 0.500000
vt 0.619775 0.245596
vt 0.375000 0.245596
vt 0.376431 0.245596
vt 0.376431 0.250000
vt 0.375000 0.250000
vt 0.376431 0.500000
vt 0.376431 0.750000
vt 0.376431 1.000000
vt 0.375000 1.000000
vt 0.375000 0.236121
vt 0.376431 0.236121
vt 0.375000 0.000000
vt 0.376431 0.000000
vt 0.376431 0.003974
vt 0.375000 0.003974
vt 0.376431 0.013449
vt 0.375000 0.013449
vt 0.125000 0.513879
vt 0.375000 0.513879
vt 0.625000 0.013449
vt 0.623474 0.013449
vt 0.380848 0.013449
vt 0.619775 0.013449
vt 0.619775 0.236121
vt 0.380848 0.236121
vt 0.380848 0.245596
vt 0.380848 0.250000
vt 0.380848 0.500000
vt 0.380848 0.750000
vt 0.380848 1.000000
vt 0.380848 0.000000
vt 0.380848 0.003974
vt 0.623474 0.746026
vt 0.625000 0.746026
vt 0.875000 0.746026
vt 0.875000 0.750000
vt 0.875000 0.500000
vt 0.875000 0.504404
vt 0.625000 0.504404
vt 0.623474 0.504404
vt 0.625000 0.736551
vt 0.875000 0.736551
vt 0.623474 0.736551
vt 0.619775 0.736551
vt 0.619775 0.746026
vt 0.619775 0.504404
vt 0.376431 0.746026
vt 0.376431 0.504404
vt 0.376431 0.736551
vt 0.376431 0.513879
vt 0.619775 0.513879
vt 0.623474 0.513879
vt 0.625000 0.513879
vt 0.875000 0.513879
vt 0.380848 0.504404
vt 0.380848 0.513879
vt 0.380848 0.736551
vt 0.380848 0.746026
vn -0.9946 0.1036 0.0000
vn -0.0000 0.0000 -1.0000
vn -0.0000 0.0000 1.0000
vn -0.1036 -0.9946 0.0000
vn 0.9946 -0.1036 0.0000
vn 0.1036 0.9946 0.0000
usemtl Material.004
s off
f 40/43/7 28/44/7 22/45/7 36/46/7
f 36/46/8 22/45/8 26/47/8 37/48/8
f 38/49/9 24/50/9 20/51/9 35/52/9
f 31/53/10 34/54/10 23/55/10 19/56/10
f 21/57/10 25/58/10 29/59/10 27/60/10
f 61/61/7 59/62/7 28/44/7 40/43/7
f 35/63/7 20/64/7 33/65/7 41/66/7
f 53/67/10 52/68/10 34/54/10 31/53/10
f 67/69/7 35/63/7 41/66/7 73/70/7
f 70/71/9 38/49/9 35/52/9 67/72/9
f 68/73/8 36/46/8 37/48/8 69/74/8
f 72/75/7 40/43/7 36/46/7 68/73/7
f 27/76/7 47/77/7 43/78/7 21/79/7
f 21/79/8 43/78/8 44/80/8 25/58/8
f 23/55/9 45/81/9 50/82/9 19/83/9
f 63/84/7 62/85/7 47/77/7 27/76/7
f 19/86/7 50/87/7 48/88/7 31/89/7
f 31/89/7 48/88/7 57/90/7 53/91/7
f 63/92/10 60/93/10 52/68/10 53/67/10
f 41/66/7 33/65/7 51/94/7 56/95/7
f 27/60/10 29/59/10 60/93/10 63/92/10
f 53/91/7 57/90/7 62/85/7 63/84/7
f 56/95/7 51/94/7 59/62/7 61/61/7
f 86/96/7 75/97/7 78/98/7 89/99/7
f 83/100/7 72/75/7 68/73/7 79/101/7
f 79/101/8 68/73/8 69/74/8 80/102/8
f 81/103/9 70/71/9 67/72/9 90/104/9
f 90/105/7 67/69/7 73/70/7 84/106/7
f 50/87/7 90/105/7 84/106/7 48/88/7
f 45/81/9 81/103/9 90/104/9 50/82/9
f 43/78/8 79/101/8 80/102/8 44/80/8
f 47/77/7 83/100/7 79/101/7 43/78/7
usemtl Material.003
f 78/98/7 61/61/7 40/43/7 72/75/7
f 73/70/7 41/66/7 56/95/7 75/97/7
f 75/97/7 56/95/7 61/61/7 78/98/7
f 84/106/7 73/70/7 75/97/7 86/96/7
f 89/99/7 78/98/7 72/75/7 83/100/7
f 62/85/7 89/99/7 83/100/7 47/77/7
f 48/88/7 84/106/7 86/96/7 57/90/7
f 57/90/7 86/96/7 89/99/7 62/85/7
usemtl Material.001
f 42/107/11 32/108/11 24/50/11 38/49/11
f 32/108/12 33/109/12 20/110/12 24/50/12
f 26/47/12 22/111/12 28/112/12 30/113/12
f 37/48/11 26/47/11 30/113/11 39/114/11
f 54/115/12 51/116/12 33/109/12 32/108/12
f 55/117/11 54/115/11 32/108/11 42/107/11
f 76/118/11 55/117/11 42/107/11 74/119/11
f 69/74/11 37/48/11 39/114/11 71/120/11
f 74/119/11 42/107/11 38/49/11 70/71/11
f 34/54/11 49/121/11 45/81/11 23/55/11
f 25/58/11 44/80/11 46/122/11 29/59/11
f 52/68/11 58/123/11 49/121/11 34/54/11
f 60/93/11 66/124/11 58/123/11 52/68/11
f 77/125/11 65/126/11 55/117/11 76/118/11
f 65/126/11 64/127/11 54/115/11 55/117/11
f 64/127/12 59/128/12 51/116/12 54/115/12
f 30/113/12 28/112/12 59/128/12 64/127/12
f 39/114/11 30/113/11 64/127/11 65/126/11
f 71/120/11 39/114/11 65/126/11 77/125/11
f 29/59/11 46/122/11 66/124/11 60/93/11
f 82/129/11 71/120/11 77/125/11 88/130/11
f 88/130/11 77/125/11 76/118/11 87/131/11
f 85/132/11 74/119/11 70/71/11 81/103/11
f 80/102/11 69/74/11 71/120/11 82/129/11
f 87/131/11 76/118/11 74/119/11 85/132/11
f 58/123/11 87/131/11 85/132/11 49/121/11
f 44/80/11 80/102/11 82/129/11 46/122/11
f 49/121/11 85/132/11 81/103/11 45/81/11
f 66/124/11 88/130/11 87/131/11 58/123/11
f 46/122/11 82/129/11 88/130/11 66/124/11
o Cube.567_Cube.001
v 0.569588 0.077013 2.259451
v 0.148338 2.892677 2.259451
v 0.569588 0.077013 2.127771
v 0.148338 2.892677 2.127771
v 0.749588 0.103943 2.259451
v 0.328338 2.919607 2.259451
v 0.749588 0.103943 2.127771
v 0.328338 2.919607 2.127771
vt 0.375000 0.000000
vt 0.625000 0.000000
vt 0.625000 0.250000
vt 0.375000 0.250000
vt 0.625000 0.500000
vt 0.375000 0.500000
vt 0.625000 0.750000
vt 0.375000 0.750000
vt 0.625000 1.000000
vt 0.375000 1.000000
vt 0.125000 0.500000
vt 0.125000 0.750000
vt 0.875000 0.500000
vt 0.875000 0.750000
vn -0.9890 -0.1480 0.0000
vn 0.0000 0.0000 -1.0000
vn 0.9890 0.1480 0.0000
vn 0.0000 0.0000 1.0000
vn 0.1480 -0.9890 0.0000
vn -0.1480 0.9890 0.0000
usemtl Material.005
s off
f 91/133/13 92/134/13 94/135/13 93/136/13
f 93/136/14 94/135/14 98/137/14 97/138/14
f 97/138/15 98/137/15 96/139/15 95/140/15
f 95/140/16 96/139/16 92/141/16 91/142/16
f 93/143/17 97/138/17 95/140/17 91/144/17
f 98/137/18 94/145/18 92/146/18 96/139/18
o Cube.568_Cube.465
v 0.569588 0.077013 -1.766287
v 0.148338 2.892677 -1.766287
v 0.569588 0.077013 -1.897967
v 0.148338 2.892677 -1.897967
v 0.749588 0.103943 -1.766287
v 0.328338 2.919607 -1.766287
v 0.749588 0.103943 -1.897967
v 0.328338 2.919607 -1.897967
vt 0.375000 0.000000
vt 0.625000 0.000000
vt 0.625000 0.250000
vt 0.375000 0.250000
vt 0.625000 0.500000
vt 0.375000 0.500000
vt 0.625000 0.750000
vt 0.375000 0.750000
vt 0.625000 1.000000
vt 0.375000 1.000000
vt 0.125000 0.500000
vt 0.125000 0.750000
vt 0.875000 0.500000
vt 0.875000 0.750000
vn -0.9890 -0.1480 0.0000
vn 0.0000 0.0000 -1.0000
vn 0.9890 0.1480 0.0000
vn 0.0000 0.0000 1.0000
vn 0.1480 -0.9890 0.0000
vn -0.1480 0.9890 0.0000
usemtl Material.005
s off
f 99/147/19 100/148/19 102/149/19 101/150/19
f 101/150/20 102/149/20 106/151/20 105/152/20
f 105/152/21 106/151/21 104/153/21 103/154/21
f 103/154/22 104/153/22 100/155/22 99/156/22
f 101/157/23 105/152/23 103/154/23 99/158/23
f 106/151/24 102/159/24 100/160/24 104/153/24
